<?xml version="1.0" encoding="utf-8"?>
<!-- Generator: Adobe Illustrator 25.2.0, SVG Export Plug-In . SVG Version: 6.00 Build 0)  -->
<svg version="1.1" id="Layer_1" xmlns="http://www.w3.org/2000/svg" xmlns:xlink="http://www.w3.org/1999/xlink" x="0px" y="0px"
	 viewBox="0 0 280 180" style="enable-background:new 0 0 280 180;" xml:space="preserve">
<style type="text/css">
	.st0{fill:#FFFFFF;}
</style>
<path d="M168.5,39.1c10.3,1.3,20.3,3.4,30.1,6.7c4.6,1.5,9.3,2.8,13.8,4.4c4,1.4,7.8,3.3,11.8,4.8c8.8,3.4,17.1,7.8,25.4,12.1
	c4.7,2.4,9.3,4.8,13.8,7.4c3.6,2.1,7,4.5,10.4,6.9c1.4,1,1.3,2,0,3.1c-0.5,0.4-1,0.6-1.5,1c-4.3,2.6-8.7,5.2-12.9,7.9
	c-5.5,3.6-10.9,7.5-16.4,11.2c-1.7,1.2-3.5,2.2-5.2,3.5c-2.5,1.9-2.5,3.4-0.4,5.6c0.7,0.7,1.3,1.5,2,2.2c2,2.2,3.9,4.5,6,6.6
	c0.7,0.7,1.8,1.5,2.8,1.6c3.1,0.1,3.9,2.1,4.5,4.7c-2.2,1.3-4.6,1.2-6.9,1.4c-5.3,0.6-10.7,0.8-15.9,1.8c-10.6,2-21.1,4.5-31.7,6.6
	c-5.4,1.1-10.9,2.1-16.4,2.9c-5.4,0.8-10.8,1.1-16.2,1.8c-2.9,0.3-5.7,0.7-8.5-0.4c-1.8-0.7-3.3,0.1-4.1,1.9
	c-1.1,2.4-2.2,4.9-3.1,7.4c-1.2,3.2-1.5,3.4-5,3.1c-4.2-0.5-8.5-0.8-12.7-1.3c-2.2-0.2-4.4-0.5-6.2-2.2c-1-0.9-1.2-1.5-0.9-2.7
	c0.5-1.8,0.6-3.6,0.9-5.4c-9.2-1.5-17.9-2.9-26.7-4.3c-0.2,1.1-0.4,1.7-0.5,2.4c-0.1,0.8-0.1,1.6-0.2,2.4c-0.5,3-1.2,3.7-4.1,3.3
	c-2.3-0.3-4.6-0.5-6.7-1.3c-2-0.8-4.6,0.9-6-1.7c-2.7-0.8-5.5-1.5-8.2-2.3c-5.9-1.8-11.7-3.5-17.6-5.4c-1.6-0.5-2.3-1.9-1.8-3.5
	c0.2-0.7,0.5-1.3,0.9-1.9c0.8-1.4,0.4-2.2-1-2.8c-1.5-0.7-3.1-1.4-4.5-2.1c-1.9-1-3.8-2-5.6-2.9c-4.2,2.6-8,5.1-12,7.3
	c-4.1,2.2-8.4,4-12.6,5.9c-2.5,1.1-5.2,2-7.7,3.1c-1.1,0.5-2,1.2-2.9,2c-2.1,1.9-2.2,1.9-3.9-0.8c0.2-0.4,0.3-0.9,0.6-1.3
	c4.3-6,7.1-12.8,10.4-19.3c4.7-9.2,6.2-19.2,6.7-29.3c0.3-6.1-0.3-12.2-0.5-18.3c-0.1-2.9-0.2-5.7-2-8.2c-0.2-0.3-0.4-1-0.2-1.4
	c0.9-2,0.1-3.8-0.7-5.4c-1.7-3.5-2-7.7-4.6-10.8c-0.4-3.4-2.2-6.1-4-8.8c-0.4-0.6-0.4-1.5-0.6-2.5c3-0.3,4.7,1.3,6.6,2.5
	c4.1,2.8,8.1,5.6,12.1,8.5c4.6,3.3,9.2,6.6,13.6,10c1.3,1,2.3,0.9,3.5,0.1c0.9-0.6,1.7-1.5,2.7-1.8c3.4-1,6.4-3.1,10.1-3.4
	c0.5,0,0.9-0.3,1.5-0.6c-0.2-1.3-0.3-2.4-0.5-3.6c-0.3-1.7,0.4-2.9,1.9-3.7c0.9-0.5,1.8-0.9,2.7-1.2c3.7-1.2,7.3-2.4,11.1-3.5
	c1.4-0.4,2.8-0.4,4.3-0.5c0.3,2.3,0.6,4.2,0.8,6.2c12.2-1.4,24.2-2.9,36-4.2c0.3-3.6,0.6-6.9,0.8-10.3c0.3-3.6,0.6-4,4-4.8
	c0.7-0.2,1.4-0.3,2.1-0.3c3-0.3,5.9-0.6,8.9-0.7c5.3-0.2,10.7-0.4,16-0.2c3.5,0.1,7.1,0.6,10.6,1.2c2.9,0.5,5.7,1.2,8.5,1.8
	c-0.4,3.8-0.8,7.3-1.3,11C167.2,38.8,167.9,39.1,168.5,39.1z M38.7,78.1c-1.4,2.3-1,4.5-0.2,6.8c0.7,2.3,0.3,3-2.1,2.7
	c-1.9-0.3-3.7-0.8-5.5-1.2c-1.3-0.3-2.5-0.6-3.8-0.8c-1.5-0.2-2,0.5-1.8,2c1.4,1,3,1.1,4.7,1.1c2,0,4,0,5.9,0.3
	c2.6,0.4,2.6,0.5,3,3.3c0.7,0.2,1.4,0.4,2.2,0.5c14.7,0.8,29.5,1.9,44.2,1.6c15.7-0.3,31.5-0.5,47.2-0.8c5.2-0.1,10.5-0.1,15.7-0.1
	c11.5,0,23-0.1,34.5,0c2.4,0,4.7,0.3,7.1,0.5c0.7,0,1.3-0.1,1.6-0.1c0.5-1.7,0.9-3,1.3-4.4c0.2-0.8,0.5-1.7,0.6-2.6
	c0.6-5.4,1.1-10.8,1.7-16.2c0.5-4.5,1.1-9,1.6-13.6c0.2-2.2,0.3-4.3,0.5-6.5c0.1-1.2-0.4-1.9-1.4-2.3c-0.8-0.4-1.6-0.7-2.5-1
	c-5.2-1.3-10.4-2.6-15.5-3.8c-2.2-0.5-4.4-1-6.7-1.3c-1.8-0.3-3.5-0.5-5.3-0.5c-3.8,0.1-7.5,0.1-11-2.3c-0.6-1.3-1-2.8-0.3-4.6
	c0.8-1.9,0.4-4.7-0.6-7c-0.3,0.8-0.7,1.4-0.8,1.9c-0.2,2.7-0.3,5.3-0.3,8c0,1.3-0.5,2-1.9,2.1c-6.3,0.5-6.4-0.3-6.3-5.5
	c0-1.8,0-3.6,0-5.3c0-0.9,0.1-2-1.2-2c-1.3,0.1-1,1.2-1.1,2.1c-0.2,2.8-0.2,5.5-0.5,8.3c-0.2,2.2-0.2,2.2-2.5,2.4
	c-1.4,0.1-2.7,0-4.1,0c-2.2-3.8-1-8-1.7-12.2c-0.8-0.1-1.5-0.1-2.2-0.2c-0.9,2.1-0.5,4-0.4,6c0.1,1.9,0.2,3.8,0.3,5.6
	c0.1,1.3-0.6,2.1-1.8,2.3c-1.4,0.3-2.9,0.6-4.4,0.9c-2.1,0.4-4.2,0.8-6.4,1.2c-0.4,0.1-0.8,0.1-1.2,0.1c-5.3,0.5-10.6,1-15.9,1.6
	C96.3,45.7,91,46.3,85.6,47c-1.7,0.2-3.3,0.7-4.9,1.2c-1.9,0.6-3.5,0.8-6.3,0.4c-0.3-1.7-0.5-3.5-0.8-5.3c-0.1,0-0.3,0-0.4-0.1
	c-0.2,0.5-0.4,1-0.4,1.5c-0.1,0.3,0.1,0.6,0.1,0.9c1,5.1-0.3,6.2-5.7,4.6c0-1.5,0-3.1,0-5c-2.3,0.7-1.5,2.3-1.6,3.5
	c0,1.4,0.2,2.7,0.3,4.1c-2.2,1.2-4.4,2-6.8,2.1C55.7,55,52.6,56,49.7,58c-2.3,1.6-4.8,2.8-7.4,3.7c-1.1,0.4-2.7-0.2-3.9-0.7
	c-5.7-2.5-11.4-5-17.2-7.4c-0.1-0.1-0.4,0-0.6,0.1c0.2,2.8,1.4,4.6,4.4,5.3c3.6,0.9,7.1,2.3,10.8,3.4c1.5,0.4,3.2,0.5,5.4,0.7
	c0.5,0.4,0.9,1.3,0.2,2.4c-1.2,1.9-2.3,3.9-2.2,6.3c0.1,1.2-0.9,1.5-1.8,1.4c-2.2-0.4-4.5-0.9-6.7-1.3c-1.9-0.4-3.8-0.9-5.9-1.4
	c0,1.3,0,2.3,0,3.4c4.5,1.7,9.1,2.4,14,2.6C38.7,77.2,38.9,77.8,38.7,78.1z M191.5,103.1c0.1-2.5,0.4-4.6,0.7-6.8
	c-3.4-0.9-6.6-1.1-9.8-1.1c-9.2-0.1-18.4-0.2-27.6-0.1c-15.9,0.2-31.7,0.5-47.6,0.7c-9.5,0.2-19,0.4-28.5,0.5
	c-3.8,0-7.7-0.3-11.6-0.5c-2.8-0.1-5.6-0.1-8.3-0.2c-4.8-0.3-9.7-0.6-14.5-1c-2.5-0.2-4.4-0.1-7.1,1c0.1,0.5,0.1,1.1,0.2,1.6
	c0.6,2.7,0,3.4-2.8,3.2c-2-0.2-3.9-0.4-5.9-0.6c-0.8-0.1-1.6,0-2.4-0.1c-1.8-0.2-2.4,0.6-2.1,2.7c1,0.2,2.1,0.5,3.2,0.6
	c2.7,0.2,5.3,0.3,8,0.5c2,0.2,2.7,0.8,2.8,2.7c0.1,2,0.5,3.8,1.4,5.6c0.8,1.5-0.1,2.9-1.8,2.7c-5.1-0.5-10.1,0.8-15.1,1.4
	c-2.7,0.3-2.7,0.4-3.4,3.5c2.5-0.1,4.8-0.8,7.2-1.3c3.6-0.8,7.2-1.4,10.8-2c0.6-0.1,1.6,0.2,2,0.7c3.5,3.3,7.7,5.6,12,7.6
	c2,0.9,4.3,1.3,6.6,1.7c2.8,0.6,5,2.1,7.2,4.1c-0.9,1.9-1.7,3.8-2.8,6.2c1.1,0.1,2.3,0.6,2.7,0.2c1.9-1.7,2.2-4,1.4-6.4
	c3.6-0.4,2.4-1,10.5,2.6c-0.8,2.2-1.6,4.5-2.6,7.1c1.2,0.2,2.2,0.4,3.5,0.6c0.5-1.7,1-3.2,1.4-4.7c0.8-2.7,1.9-3.2,4.7-2.1
	c1.3,0.6,2.7,1.1,4.3,1.8c-0.6,1.9-1.3,3.8-1.9,5.8c-0.5,1.5,0.1,2.3,2.1,2.1c0.5-1.7,1-3.4,1.5-5.2c0.6-2.4,1.1-2.8,3.5-2.4
	c2,0.3,4,1,6,1.4c5.1,0.9,10.1,1.9,15.2,2.6c4.9,0.6,9.9,0.9,14.8,1.3c0.6,0,1.2,0,1.8,0.1c2.1,0.5,2.6,1.3,2.1,3.4
	c-0.5,2.2-1,4.4-1.6,7c1.2,0.2,2.2,0.3,3.2,0.5c0.6-3.5,1.2-6.7,1.9-10.3c1.4,0.3,2.5,0.5,3.9,0.8c-0.3,3.2-0.6,6.3-0.9,9.7
	c1,0.2,2.1,0.3,3.3,0.5c0.4-3,0.8-5.7,1.3-8.4c0.5-2.6,0.6-2.6,3.3-2.2c1.7,0.2,3.3,0.2,5.1-0.6c1.5-0.7,3.6-0.3,5.5-0.3
	s3.7,0.5,5.6,0.3c6.7-0.6,13.5-1,20.1-2.1c6.2-1,5.4-0.3,6-6c0.2-2.4,0-4.9,0-7.5 M14.5,130.6c-1.7,0.5-1.8,2.1-2.3,3.5
	c6-1.7,11.2-4.8,16.8-7.3C23.8,126.8,19.3,129.1,14.5,130.6z M186.7,52.5c-3.5-1.4-6.9-2.3-10.4-2.6c-1.5-0.1-2.5,0.4-3.4,1.4
	c-1.2,1.4-0.5,2.9,1.2,3.3c2.7,0.6,5.4,1.1,8.1,1.7c3.1,0.7,3.8,0.4,4.5-2.8C186.7,53.3,186.7,53,186.7,52.5z M176.9,63.3
	c-3.9-1.6-7.8-1.9-11.7-2c-0.6,0-1.2,0.5-1.8,0.8c-0.9,0.4-1.6,1.1-1.2,2.1c0.3,0.7,1.1,1.4,1.9,1.6c1.9,0.4,3.9,0.5,5.8,0.8
	c1,0.1,2,0.3,2.9,0.5c2.7,0.7,3.2,0.4,4-2.3C176.8,64.5,176.8,64.1,176.9,63.3z M189.3,74.9c-1.7-0.4-3.2-0.9-4.7-1.2
	c-1.5-0.3-3.1-0.5-4.6-0.9c-1.3-0.3-2.3,0-3.2,0.9c-1.2,1.4-0.8,2.9,1,3.3c2.4,0.6,4.8,1.1,7.2,1.7C188,79.6,188.9,78.8,189.3,74.9z
	 M86,83.8c-1.1,0-2.2-0.1-3.3,0C81.4,83.9,80,85,80,86.1c0,1.5,1,2.1,2.3,2.2c2.8,0.3,5.5,0.5,8.3,0.7c1.3,0.1,2.3-1.3,2.4-2.9
	c0.1-1.5-0.7-1.9-1.9-2C89.4,84,87.7,83.8,86,83.8C86,83.7,86,83.8,86,83.8z M173,84.7c-3.5-1.1-6.9-1.6-10.4-1.5
	c-0.7,0-1.4,0.2-2,0.5c-1.2,0.7-0.9,2.7,0.6,3.3c1.5,0.6,3.1,0.8,4.6,1.1c0.9,0.2,1.8,0.2,2.6,0.5C171.6,89.4,172.9,88.4,173,84.7z
	 M139.9,61.8c-1.2,0.2-2.6,0.2-3.9,0.6c-0.8,0.3-1.7,1-2.1,1.8c-0.7,1.1-0.1,2.2,1.2,2.3c2.8,0.3,5.7,0.5,8.5,0.6
	c1,0,2.3-1.5,2.4-2.6c0.1-1.4-0.7-2-1.9-2.2C142.8,62.1,141.4,62,139.9,61.8z M130.1,49.9c-3-0.7-6-0.3-9,0.3
	c-0.7,0.1-1.4,0.8-1.9,1.4c-0.4,0.6-0.8,1.5-0.6,2.1c0.2,0.5,1.2,1,1.9,1c2.5,0,4.9,0,7.4-0.2C129.8,54.3,130.4,53,130.1,49.9z
	 M105.1,73.8c-3.4-0.3-6.3-0.6-9.1-0.6c-0.9,0-2,0.8-2.6,1.5c-0.9,1.1-0.5,2.5,0.9,2.8c2.8,0.5,5.7,0.7,8.5,0.9
	c0.5,0,1.3-0.6,1.5-1.1C104.7,76.4,104.8,75.3,105.1,73.8z M138.8,74.1c-2.8-0.4-5.4-0.9-8-1.1c-1.4-0.1-3,0-3.6,1.9
	c-0.4,1.4-0.1,2.5,1.3,2.7c2.6,0.4,5.3,0.8,7.9,0.9C138.1,78.6,138.7,77.3,138.8,74.1z M155.4,70.7c-0.7,0.3-1.8,0.6-2.6,1.2
	c-0.5,0.4-1.1,1.3-0.9,1.9c0.1,0.6,1,1.3,1.6,1.5c2.6,0.6,5.2,1,7.8,1.4c1.3,0.2,2.4-1.1,2.7-2.6s-0.7-1.9-1.8-2.1
	C160,71.5,157.9,71.1,155.4,70.7z M150.1,84.4c-3.1-1-6.1-1.2-9.1-1.2c-1.3,0-2,1.1-2.1,2.5c-0.1,1.3,0.6,1.9,2.2,2.1
	c1.5,0.2,3,0.3,4.4,0.5C149,88.9,149.6,88.5,150.1,84.4z M122.7,84.4c-3.1-1.2-5.9-1.1-8.8-1.1c-1.6,0-2.2,1.1-2.6,2.4
	s0.1,2.1,1.5,2.3c2.3,0.3,4.7,0.6,7,0.7c0.7,0,1.7-0.6,2.1-1.2C122.4,86.6,122.4,85.5,122.7,84.4z M118.1,64.5
	c-3.5-0.9-6.5-0.9-9.5-0.2c-1.2,0.3-2.1,1.6-1.9,2.6c0.2,1.2,1.1,1.6,2.1,1.6c2.3,0.1,4.7,0.3,7,0.3c0.6,0,1.4-0.8,1.7-1.4
	C117.9,66.6,117.9,65.6,118.1,64.5z M85.4,65.8c-3.3-1.1-6.4,0.3-9.5,1c-0.5,0.1-1.2,1.4-1.1,2.1c0.1,0.7,0.9,1.6,1.5,1.8
	c1,0.3,2.1,0,3.2,0c0.9-0.1,1.8-0.3,2.6-0.3C85.6,70.5,86.4,69.4,85.4,65.8z M66.8,58.2c-2.5,0.3-4.8,0.5-7.1,0.9
	c-0.8,0.1-1.6,0.7-2.2,1.3c-0.7,0.7-1.5,1.7-1,2.9c0.6,1.2,1.7,0.7,2.6,0.6c1.6-0.2,3.1-0.3,4.7-0.5C66.9,63,67.5,62.1,66.8,58.2z
	 M57,83.5c-2-0.2-4.1-0.6-6.1-0.5c-1,0-2.1,0.5-2.8,1.2c-0.6,0.6-0.9,1.8-0.7,2.6c0.1,0.5,1.4,0.8,2.2,0.9c1.4,0.2,2.8,0.1,4.1,0.3
	c3,0.5,4.1-0.5,3.8-3.6C57.4,84.3,57.3,84.1,57,83.5z M158,50.9c-2.5-1.3-5.3-1.3-8-1c-0.6,0.1-1.3,0.5-1.8,0.9
	c-1.4,1.2-1.1,2.9,0.6,3.3c2.3,0.5,4.6,0.9,7,1C157.2,55.3,157.9,53.6,158,50.9z M95.1,52.3c-1.8,0.5-3.6,1-5.3,1.7
	c-0.7,0.3-1.3,1.2-1.7,2c-0.4,0.9,0,2,1.1,2c2.5,0,4.9-0.1,7.4-0.5c1.2-0.2,2-2.4,1.5-3.8C97.7,51.9,96.3,52.7,95.1,52.3z
	 M68.8,76.2c-1,0-2-0.1-3,0c-1.5,0.3-2.5,1.7-2.3,3c0.2,1.6,1.4,1.7,2.7,1.7c1.6,0.1,3.1,0.2,4.7,0.3c1.5,0.1,2.5-0.8,2.8-2.4
	c0.2-1.5-0.4-2.4-2-2.6c-1-0.1-2-0.1-3-0.2C68.8,76.1,68.8,76.1,68.8,76.2z M51.9,74.5c0.6,0,1.3,0.1,2.1,0c1.6-0.1,2.5-1.1,2.5-2.7
	c0-1.5-0.7-2.2-2.5-2.2c-1.2,0-2.4,0-3.5,0.2c-0.6,0.1-1.5,0.4-1.8,0.8c-0.6,0.8-1.3,1.9-1.2,2.8c0.2,1.3,1.6,1.2,2.7,1.2
	C50.7,74.7,51.2,74.6,51.9,74.5z"/>
<path d="M185.4,107c-4-0.9-8-2-12.1-2.8c-3.9-0.8-7.9-1.3-11.9-2c-1.9-0.4-2.5-0.2-2.9,1.7c-0.4,1.7-0.6,3.5-0.6,5.3
	c0,2.1,0.9,4.2-0.5,6.1c-0.2,0.2,0.1,0.7,0.1,1.1c0.4,3.9,0.3,7.7-1.2,11.3c-0.7,1.9,0.4,3.3,1.2,4.7c0.7,1.2,1.9,0.7,3,0.6
	c1.1-0.2,2.3-0.2,3.5-0.3c4.9-0.3,9.9-0.7,14.8-1c3-0.3,11.9-1.1,15-1.3v-21.1C192.3,108.9,186.7,107.3,185.4,107z M160.3,109
	c4.7,0.5,9.5,1.2,14.2,2c4.6,0.8,9.4,1,13.9,2.7c-0.9,0.5-1.7,0.7-2.5,0.6c-2.9-0.3-5.9-0.8-8.8-1.2c-3.7-0.5-7.4-1.1-11.1-1.6
	c-1.6-0.2-3.2-0.4-4.7-0.7c-0.4-0.1-0.8-0.5-1.2-0.9C160.1,109.6,160.2,109.3,160.3,109z M186.6,125.7c-4.9,0.2-9.8,0.7-14.7,0.5
	c-4.1-0.1-8.1-0.4-12.8,0.6c0.3-1.6,0.4-2.5,0.5-3.3c9.8,0.3,19.2,0.6,28.6,0.9C188.3,125.7,187.3,125.7,186.6,125.7z M160,117.6
	c0-1.2,0.8-1.2,1.6-1c1.5,0.3,2.9,0.7,4.4,0.8c4.9,0.5,9.8,1,14.7,1.3c2.3,0.1,4.7,0.8,7-0.1c0.2-0.1,0.7,0.4,1.2,0.7
	C184.8,120.5,163.5,119.1,160,117.6z"/>
<path class="st0" d="M227.6,86.2c2.3-2.1,3.7-4.5,2.9-7.6c-0.9-3.5-3.2-5.9-6.7-6.8c-2.5-0.7-7.6,1.7-9.1,4
	c-0.5,0.8-0.9,1.5-1.3,2.3c-2.7,5.7,0.5,10.8,7.9,10.7C223,88.8,225.5,88.2,227.6,86.2z"/>
<path d="M222.3,77.5c1.6,0.9,2.4,2.1,2.2,3.9c-0.1,0.9,0.4,1.7,1.3,1.4c0.6-0.2,1.4-1,1.4-1.5c-0.1-2.3-0.7-4.5-2.9-5.8
	c-0.6-0.4-1.5-0.5-2.2-0.4c-3.3,0.4-6.1,3.3-6.6,6.6c-0.2,0.9-0.4,1.8,0.9,2.1c1.2,0.3,1.7-0.6,1.8-1.5
	C218.4,79.8,219.7,78.1,222.3,77.5z"/>
</svg>
