<svg class="octopus" viewBox="0 0 170 320">
    <path d="M91.1,172.9c0.4,0,0.8-0.1,1.1-0.1c3.8,0,7.6,0,11.4-0.1c5.6-0.1,11.2-0.3,16.8-0.3c4.4-0.1,8.8,0,13.2,0
      c5.2,0,10.3,0,15.5,0.2c1.7,0,3.6,0.3,4.2,2.4c0.5,1.7,0.9,3.4,1.3,5.1c0.9,3.4-1.3,4.7-4.1,5.2c-6,0.9-12,1.8-18,2.5
      c-3.5,0.4-7,0.8-10.5,1c-4,0.2-8,0.2-12,0.4c-2.9,0.2-5.8,0.6-8.6,0.9c-1.5,0.2-3,0.4-4.6,0.6c0,0.2,0,0.3-0.1,0.5
      c0.5,0.3,1,0.6,1.5,0.8c1,0.5,2.1,0.9,3.1,1.4c2.4,1.3,4.7,2.7,7.1,4.1c1,0.6,2.2,0.9,3.2,1.6c3.8,2.5,7.4,5.3,11.3,7.6
      c6.7,4,13.6,7.5,20.2,11.5c5.2,3.1,10.2,6.5,15.3,9.8c2,1.3,3.4,2.9,2.8,5.4c-0.4,1.6-1.4,3.1-2.1,4.6c-0.1,0.2-0.3,0.3-0.5,0.3
      c-3.3,0.9-6.7,1.8-10,0c-1.3-0.7-2.8-1.1-4.2-1.7c-0.7-0.3-1.4-0.6-2.1-0.9c-3.2-1.6-6.3-3.2-9.6-4.7c-2.5-1.1-5.1-1.9-7.6-2.9
      c-1.5-0.6-2.9-1.3-4.3-1.9c-0.3-0.1-0.8-0.1-1.5-0.2c3.8,3.3,7.2,6.4,10.7,9.3c3.4,2.9,7,5.6,10.5,8.4c1.7,1.3,2.7,3,2.1,5.1
      c-0.5,2-1.1,4-2,5.9c-1.2,2.5-2.7,3-5.1,1.9c-1.7-0.8-3.4-1.5-5-2.5c-3.4-2-6.8-4.2-10.2-6.3c-2.9-1.9-5.8-3.7-8.7-5.7
      c-3.9-2.7-7.8-5.6-11.7-8.4c-1.3-0.9-2.7-1.9-4-2.8c-0.1,0.1-0.2,0.3-0.3,0.4c1.3,1.7,2.5,3.4,3.9,5c3,3.4,6.2,6.6,9.3,9.9
      c2.6,2.8,5,5.8,7.6,8.6c2.6,2.9,5.3,5.7,7.9,8.5c2,2.2,4,4.3,5.9,6.6c0.4,0.5,0.7,1.4,0.7,2.1c0.1,3-2,4.7-4,6.4
      c-1.6,1.3-3.4,1-4.9-0.3c-2.4-2-4.7-3.9-7.1-5.9c-2.1-1.8-4.4-3.4-6.3-5.4c-3.8-3.9-7.4-8-11.1-12c-2.4-2.7-4.8-5.4-7.5-8.3
      c0.1,0.6,0,0.9,0.1,1c1.5,2.2,2.9,4.5,4.5,6.6c2.1,2.8,4.3,5.5,6.3,8.3c3.1,4.4,6,8.9,9.1,13.3c0.8,1.2,1.1,2.3,0.8,3.7
      c-0.6,2.6-2.6,4.1-4.3,5.8c-1.6,1.6-2.9,1.7-4.6,0.2c-1.6-1.4-3.1-3-4.5-4.7c-2.7-3.2-5.2-6.4-7.8-9.7c-3.4-4.2-6.8-8.4-10.2-12.6
      c-1.8-2.2-3.5-4.3-5.2-6.5c-1.7-2.2-3.4-4.5-5.2-6.7c-0.3-0.3-0.8-0.5-1.2-0.8c0.9,2.9,1.9,5.5,3,8.1c1.8,4,3.7,7.9,5.5,11.8
      c1.7,3.6,3.4,7.3,5,10.9c1.1,2.3,2.1,4.6,3.2,6.8c1.9,3.7,3.9,7.4,5.7,11.2c1,2.3,0.6,3.1-1.7,4.1c-1.8,0.7-3.6,1.4-5.4,2
      c-2,0.6-3.8,0.8-5.3-1.1c-1.3-1.7-2.9-3.3-4-5.2c-1.7-2.9-3.1-5.9-4.5-9c-1.8-4-3.4-8-5.2-12c-1.9-4.3-3.9-8.6-5.9-12.9
      c-0.3-0.5-0.6-1-1-1.5c-0.3,0.4-0.4,0.8-0.3,1c0.9,3,1.7,6.1,2.7,9.1c1.5,4.6,3,9.3,4.5,13.9c1.6,4.8,3.2,9.7,4.7,14.5
      c0.8,2.5,0.3,4.5-1.3,5.3c-1.5,0.7-3,1.3-4.5,1.9c-2.7,1-4,0.7-5.3-1.9c-1.7-3.4-3.1-6.9-4.4-10.4c-1.2-3.2-2.1-6.5-3.2-9.8
      c-2.1-6.1-4.3-12.2-6.6-18.3c-1.4-3.7-2.9-7.3-4.4-10.9c-1.1-2.6-2.1-5.1-3.3-7.6c-0.4-0.9-0.9-1.9-1.4-2.8
      c-0.2,0.1-0.4,0.1-0.6,0.2c0.3,1.9,0.7,3.7,1,5.6c0.4,2.7,0.8,5.4,1.2,8.1c0.8,4.8,1.7,9.7,2.5,14.5c0.7,4.3,1.1,8.7,1.7,13
      c0.4,2.9,1.2,5.7,1.7,8.5c1.1,6.3,2.1,12.5,3.3,18.8c0.3,1.6-0.1,2.9-1.6,3.3c-3.2,0.8-6.4,1.4-9.6,2c-0.4,0.1-1-0.3-1.3-0.6
      c-2-2.5-2.6-5.6-3.6-8.5c-1.1-3.3-1.7-6.7-2.7-10c-1.7-5.6-3.5-11.1-5.3-16.7c-2.2-6.9-4.5-13.8-6.7-20.7c-0.6-1.8-1-3.7-1.5-5.5
      c-0.6-2.1-1.2-4.1-1.6-6.2c-0.7-3.4-1.4-6.8-2-10.2c-0.4-2.2-1-4.3-1.2-6.5c-0.3-2.7-0.2-5.4-0.4-8.1c-0.2-2.4-0.8-4.8-0.7-7.1
      c0.2-5,0.5-10,1.2-14.9c0.7-5.3,1.8-10.6,2.9-15.8c0.8-4,1-7.8-0.3-11.7c-0.8-2.2-1-4.6-1.4-6.9c-0.1-0.5,0.2-1.4,0.6-1.7
      c1-0.8,2.2-1.3,3.4-1.9c3.7-2,7.4-4,11.1-6c0.4-0.2,0.7-0.6,1.3-1.2c-2.2,0.3-3.9,0.5-5.6,0.6c-3,0.2-6,0.4-9,0.6
      c-0.4,0-0.8-0.2-1.2-0.4c-1.4-0.7-0.8-2-0.9-3.1c-0.4-4-1.2-8-1.1-11.9c0.1-5,0.8-9.9,1.4-14.8c0.6-4.3,1.1-8.6,2.3-12.8
      c1.8-6.4,4.1-12.7,6.2-19c0.6-1.8,1.3-3.5,2.1-5.2c1.5-3.2,2.9-6.5,4.7-9.6c2.2-3.9,4.7-7.8,7.3-11.4c2.7-3.8,5.7-7.5,8.7-11.1
      c2.5-3,5.3-5.7,7.9-8.5c5.1-5.4,10.1-10.9,15.3-16.1c4.5-4.4,9.2-8.6,13.9-12.8c1.5-1.4,3.2-2.6,4.9-3.8c0.7-0.5,1.7-0.7,2.5-1.2
      c2.8-1.6,5.4-3.4,8.3-4.8c6.3-3.1,13.3-3.5,20.1-4.2c0.9-0.1,1.8,0.2,2.7,0.4c1.1,0.3,2.1,0.7,3.1,1c5.5,1.2,10.6,3.5,15,6.7
      c6,4.4,12,8.9,17.1,14.3c5,5.3,9.1,11.1,10.8,18.3c1,4,1,8.1,0.4,12.3c-0.7,4.8-0.9,9.7-1.8,14.5c-1.3,6.7-2.9,13.4-4.5,20
      c-1.1,4.5-2.2,8.9-3.8,13.2c-2.1,5.6-4.9,11-7,16.6c-2.7,7.4-7.5,13.2-13,18.5c-4.2,4.1-8.7,8.1-14,10.9c-4.3,2.3-8.7,4.6-13.2,6.5
      c-5,2.1-10.3,3.5-15.4,5.6c-3.8,1.6-6.6,4.6-8.4,8.9C85,172.8,88.1,172.9,91.1,172.9z M76.3,231.3c1.1,1.3,2.5,2.4,3.8,3.6
      c1.6,1.4,3.4,2.7,4.9,4.3c6.8,7.3,13.6,14.6,20.3,21.9c4.6,5,9.7,9.4,15,13.6c1,0.8,2,1.7,3.1,2.3c1.1,0.6,2.1,0.4,2.9-0.7
      c0.4-0.6,1-1.1,1.5-1.7c1.6-2.1,1.6-3.6-0.2-5.6c-3-3.4-6.1-6.7-9.2-10.1c-3.2-3.6-6.4-7.1-9.6-10.7c-3.5-3.8-7.1-7.6-10.5-11.4
      c-2.9-3.3-5.8-6.6-8.5-10c-3.7-4.6-7.1-9.3-10.8-13.9c-0.5-0.7-1.3-1.1-1.9-1.7c-0.2-0.1-0.4-0.3-0.4-0.5c-0.5-3.4-3.2-5.4-5-8
      c-1.4-2.1-3.1-4.1-4.5-6.2c-0.4-0.6-0.5-1.5-0.7-2.3c2.1-1.3,3.2-1.1,5,0.2c2.1,1.6,4.4,3,6.7,4.4c2,1.2,4.2,2,6.1,3.3
      c2.5,1.6,4.7,3.7,7.1,5.4c2.8,2,5.7,3.9,8.6,5.6c4.6,2.7,9.2,5.4,14,7.8c4.6,2.3,9.3,4.2,14,6.3c5,2.2,10.1,4.5,15.1,6.7
      c2.7,1.2,5.3,2.5,8.1,3.2c1.6,0.4,3.5,0.1,5.3-0.2c0.6-0.1,1.3-0.9,1.5-1.5c1.5-4.5,2.5-4.1-2.2-7.2c-6.2-4.1-12.4-8.1-18.8-12
      c-4.9-3-10-5.6-14.9-8.5c-3.7-2.2-7.2-4.9-11-7.2c-2.5-1.5-5.1-2.7-7.7-4c-4.5-2.3-9-4.5-13.4-7.1c-2.7-1.6-5.2-3.7-7.8-5.4
      c-1.1-0.7-2.3-1.2-3.4-1.9c-0.9-0.5-1.9-1.1-2.7-1.8c-0.3-0.2-0.4-0.9-0.3-1.2c1.3-2.7,2.4-5.6,4.1-8.1c1.7-2.5,3.8-4.7,5.9-6.9
      c2.9-3,7-3.4,10.6-4.8c4.6-1.7,9.4-3.3,13.8-5.6c4.8-2.5,9.3-5.5,13.7-8.5c5.3-3.7,9.6-8.6,13.9-13.4c2.6-3,4.1-6.6,5.7-10.2
      c2.2-5.2,4.7-10.3,6.9-15.5c0.9-2.2,1.7-4.5,2.2-6.8c1.1-4.5,2.1-9,3.1-13.5c1.2-5.2,2.3-10.4,3.3-15.6c0.4-2.3,0.5-4.7,0.8-7.1
      c0.3-2.8,0.6-5.5,0.7-8.3c0.3-5.1-0.5-9.9-2.8-14.6c-2.6-5.4-6.5-9.6-10.4-13.9c-1.7-1.8-3.8-3.3-5.8-4.8c-3.6-2.7-7.3-5.4-11-7.9
      c-3.1-2.1-6.5-3.6-10.1-4.4c-2-0.5-3.8-1.6-5.8-1.6c-3.4-0.1-6.8,0.1-10.1,0.6c-7.4,1.1-13.9,4.5-20.2,8.3
      c-4.7,2.8-8.2,6.7-12.2,10.2C64.1,33.5,56.7,41.1,49.6,49c-5.6,6.2-11,12.5-16.2,19c-2.6,3.3-4.6,7.2-6.8,10.9
      c-1.6,2.6-3.2,5.3-4.4,8.1c-2.3,5.3-4.3,10.8-6.3,16.2c-3.5,9.5-5.2,19.4-6.4,29.4c-0.8,6.7-0.7,13.5,0.8,20.1c0.1,0.4,0.9,1,1.3,1
      c5.5-0.3,11-0.7,16.6-1c0.7,0,1.4,0.2,2.1,0.3c0.1,0.2,0.2,0.5,0.2,0.7c-1.3,0.9-2.5,1.8-3.8,2.6c-4.2,2.4-8.4,4.7-12.6,7
      c-0.6,0.3-1.2,0.5-1.8,0.8c-1.7,0.9-2.1,2.2-1.5,4c0.9,2.7,1.6,5.4,2.2,8.1c0.3,1.3,0.4,2.7,0.2,4c-1.2,6.8-2.6,13.5-3.7,20.3
      c-1.2,6.7-1.2,13.5-0.8,20.3c0.4,8.1,1.5,16,3.4,23.8c1.1,4.6,2,9.3,3.4,13.8c2.1,6.9,4.5,13.6,6.7,20.4c1.9,6,3.6,12,5.4,18
      c1,3.3,2,6.6,3.1,9.8c0.6,2,1.4,3.9,2.2,5.8c0.2,0.4,0.7,0.9,1.1,1c3,0.2,5.9-0.5,8.5-1.9c0.5-0.3,0.9-1.5,0.8-2.2
      c-1-7.1-2.2-14.2-3.3-21.3c-0.8-4.9-1.7-9.8-2.5-14.7c-1.2-7.6-2.4-15.2-3.6-22.9c-0.6-4.1-1.2-8.2-1.9-12.2
      c-0.1-0.8-0.6-1.5-0.7-2.3c-0.2-2.4-0.4-4.9-0.5-7.3c-0.3-4.3-0.6-8.5-0.8-12.8c-0.1-2.1,0.1-4.3,0.3-6.4c0.1-0.6,0.6-1.2,1.2-1.6
      c0.2-0.1,1.1,0.4,1.4,0.8c1.4,2.2,3.1,4.2,4.2,6.7c1.2,2.8,3.2,5.3,4.6,8c1.6,3,3,6.1,4.6,9.2c1.2,2.4,2.7,4.7,3.8,7.2
      c2.3,4.9,4.6,9.9,6.9,14.8c0.7,1.5,1.6,3,2.3,4.5c1.9,3.8,3.8,7.5,5.5,11.3c2.4,5.2,4.4,10.6,6.9,15.7c1.9,3.8,3.2,8.2,7.1,10.8
      c0.8,0.5,2,0.9,2.9,0.8c1.9-0.4,3.6-1.2,5.4-1.8c1.2-0.5,1.5-1.5,1-2.6c-2-4.1-4-8.1-6-12.2c-1.1-2.2-2-4.4-3-6.6
      c-1.1-2.4-2-4.8-3.1-7.2c-1.6-3.4-3.2-6.8-4.7-10.3c-2.6-5.8-5-11.6-7.6-17.3c-0.8-1.7-1.8-3.3-2.7-5c-0.2-0.3-0.3-0.6-0.4-0.9
      c-0.5-3.8-3-6.8-4.3-10.2c-1.7-4.2-3.4-8.5-5.2-12.6c-0.5-1.2-1.3-2.3-0.6-3.7c0.2-0.4,0.6-0.9,0.9-0.9c0.5,0,1.2,0.3,1.5,0.6
      c1.5,1.6,2.8,3.3,4.3,4.9c1.2,1.3,2.4,2.6,3.6,3.9c0.3,0.4,0.6,0.8,1,1.1c3.4,2.4,5.7,5.8,8.6,8.6c0.9,0.8,2,1.5,3.3,2.4
      C73.6,229.4,75.3,230.2,76.3,231.3z M112.7,174.3c-4.1,0-8.2-0.1-12.3-0.1c-5.3,0.1-10.6,0.3-15.9,0.5c-0.4,0-0.8,0.1-1.1,0
      c-3.6-0.7-2.6-0.5-4.2,2.4c-1.5,2.7-1.2,2.6,1.5,4.2c3,1.7,5.9,3.7,8.7,5.7c1.6,1.1,3.1,2.1,5.3,1.9c5.2-0.6,10.4-0.9,15.7-1.2
      c4.2-0.2,8.4,0,12.6-0.3c4.2-0.3,8.3-1,12.5-1.6c4.3-0.6,8.5-1.3,12.8-2c4.5-0.7,5.1-1.8,3.9-6.2c-1-3.5-1.1-3.6-4.7-3.6
      c-1,0-2,0-3-0.1c-1,0-2,0-3,0c0,0.1,0,0.2,0,0.3C132,174.3,122.4,174.3,112.7,174.3z M35.6,240.6c0.5,1.1,2.6,0.9,3.7-0.2
      c1.9-2,2-4.3,0.5-6.6c-0.8-1.2-1.4-2.5-2.2-3.8c-0.5-0.8-1.3-1.4-2.4-0.9c-0.2,0.1-0.4,0.1-0.6,0c-1.5-0.3-1.9,0-1.8,1.6
      C32.3,234.4,34.1,237.4,35.6,240.6z M99.2,229.8c1.1,1.3,2.2,2.6,3.6,3.6c1,0.8,2.5,0.7,3.2-0.5c0.7-1.3,1.1-2.9,1.3-4.3
      c0.1-0.5-1-1.1-1.5-1.7c-1.5-1.7-3.3-2.5-5.5-1.6c-0.8,0.4-1.5,1.1-2.3,1.7C98.5,228.2,98.7,229.1,99.2,229.8z M49.2,259.9
      c-0.5-2.5-1.3-5.1-3.2-7c-1.4-1.4-3.2-1.4-4,0.1c-0.2,0.4-0.3,1-0.2,1.4c1,2.6,2.2,5.1,3,7.8c0.4,1.2,1.2,1.3,2.1,1.3
      C48.6,263.4,49.6,261.8,49.2,259.9z M107.4,225.8c0.5,0.3,1.2,0.6,1.8,0.7c1.4,0.4,3.9-0.9,3.9-2.3c0-0.8-0.9-1.8-1.6-2.4
      c-1.3-1.1-2.6-2.1-4.1-2.8c-0.7-0.4-2-0.5-2.6-0.2c-0.6,0.3-0.8,1.5-1.1,2.2C104.4,223.3,105.7,224.7,107.4,225.8z M59.3,284.8
      c0.7,1.6,2.2,1.9,3.4,0.9c0.4-0.3,0.7-1.1,0.6-1.6c-0.9-3-1.8-6-2.8-9c-0.2-0.5-0.6-1.3-0.9-1.3c-0.6,0-1.3,0.4-1.6,0.9
      c-0.5,0.9-0.6,1.9-0.9,2.9c-0.1,0.1-0.2,0.1-0.3,0.2C57.7,280.1,58.4,282.5,59.3,284.8z M76.1,245.8c-0.3,1.1-0.4,2.4-0.1,3.5
      c0.3,1,1.2,1.8,1.9,2.6c0.6,0.8,1.3,1.6,2.5,1c1.3-0.6,2-1.6,1.8-3c-0.4-2.9-1.8-5.4-3.8-7.5c-0.2-0.2-0.5-0.2-0.5-0.2
      C77.3,243.6,76.5,244.6,76.1,245.8z M56.2,285c-0.6-3.1-1-6.3-2.9-8.9c-0.3-0.4-0.5-0.8-0.8-1c-0.8-0.3-1.6-0.4-2.4-0.6
      c0,0.7-0.1,1.4,0.1,2c1,3.1,2,6.1,3.1,9.2c0.4,1.1,0.9,2.1,1.4,3.1c0.3,0,0.5,0,0.8,0C55.7,287.6,56.5,286.2,56.2,285z M51,258.7
      c0.4,1.4,1.5,2.3,2.9,2.5c0.5,0.1,1.2,0,1.6-0.4c0.3-0.2,0.3-1,0.1-1.4c-1.1-3.1-2.2-6.3-3.3-9.4c-0.1-0.4-0.6-1-0.9-1
      c-0.4,0-0.9,0.4-1.1,0.8c-0.4,0.9-0.6,1.8-1,2.9C49.9,254.7,50.4,256.7,51,258.7z M81.8,209.1c-0.9,0.4-1.8,0.8-2.8,1.3
      c2,2.7,4.1,5.5,6.3,8.5C88,214.8,86.5,211.2,81.8,209.1z M120,245.1c1.1,0.6,2.1,1.3,3.2,1.9c1.1,0.7,2.3,0.2,2.7-1.1
      c0.6-2.3,0.4-2.9-1.7-4c-0.4-0.2-0.9-0.4-1.3-0.7c-0.7-0.7-1.4-0.8-2.3-0.2c-0.4,0.3-1.1,0.2-1.7,0.3C118,243.2,118.2,244,120,245.1
      z M92.9,271.3c0.2,0.3,0.5,0.6,0.8,0.9c0.5,0.8,0.9,1.8,2.1,1c1.5-0.9,2.2-2.4,1.5-3.6c-0.8-1.3-1.6-2.6-2.6-3.8
      c-0.6-0.8-1.6-1.5-2.5-0.9c-0.7,0.5-0.9,1.6-1.4,2.6C91.5,268.9,92.1,270.1,92.9,271.3z M65.3,230.4c0.4-2.4-2-5.5-4.2-5.7
      c-0.5,0-1.2,0.2-1.6,0.5c-0.2,0.2-0.1,1,0.1,1.5c1.1,2.5,2.3,4.9,3.4,7.4c0.1,0.3,0.4,0.6,0.8,1.2C64.4,233.5,65.1,232,65.3,230.4z
       M127.9,241.1c1.1,0.6,2.2,1.1,3-0.5c0.7-1.5,0.5-2.2-1-3.3c-1-0.7-2-1.5-3.1-2.1c-1.6-0.9-2.7-0.1-2.7,1.9
      C124.1,239.5,126.2,240.1,127.9,241.1z M81,242.1c1,1.8,2.1,3.6,3.3,5.2c0.5,0.6,1.8,0.9,2.5,0.6c1.2-0.4,0.6-1.6,0.2-2.4
      c-0.6-1.1-1.4-2.1-2.1-3.1c-0.8-1-1.6-2-2.4-3.1C81.3,239.5,80.4,241,81,242.1z M100.5,269.3c1.9-1.1,2-1.5,0.8-3.3
      c-1.4-2.1-2.7-4.3-5.7-4.5C95.2,264.4,96.7,266.8,100.5,269.3z M40.9,225c-1.4,1-1.1,2.2-0.8,3.2c1.4,4.6,2.4,6.9,5.8,7.3
      C44.8,231.7,42.4,228.7,40.9,225z M84.5,207.8c1,0.8,2.2,1.5,3.2,2.3c1.3,1.1,2.2,0.4,3.6-0.8c-2.6-1.8-5-3.5-7.6-5.3
      C82.7,205.8,83.4,206.9,84.5,207.8z M69.8,227c-2-1.9-4-3.6-5.8-5.3C63.6,223.9,66.7,227.1,69.8,227z M18.7,129.1
      c0.3-5.2,3-8.2,8.3-8.1c5.9,0.1,8.3,2.8,8.4,7.9c0.1,4.3-2.8,7.8-8.1,7.9C23.5,136.8,18.6,132.5,18.7,129.1z M26.8,134.5
      c2.8,0,5.9-2.7,5.9-5.6c0-2.7-2.3-5.6-6.8-5.6c-2.5,0-4.6,2.3-4.6,5C21.4,132.5,24.2,134.5,26.8,134.5z M152.3,70.2
      c0.1-3.6-0.4-7-3.3-9.4c-1.8-1.5-3.9-2.6-5.9-3.7c-0.9-0.5-2.1-0.5-2.6,0.7c-0.5,1.2,0.5,1.6,1.2,2.1c2.3,1.4,4.7,2.7,5.8,5.3
      c0.5,1.2,0.9,2.6,0.9,3.9c0,2.3-0.4,4.6-0.6,6.9c-0.1,1-0.5,2.2,0.7,2.7c1.5,0.6,2.3-0.6,2.8-1.7c0.6-1.5,0.8-3.1,1.1-4.6
      C152.4,71.8,152.3,71,152.3,70.2z M122.1,94.5c-0.6-3.2-1-6.4-1.9-9.5c-0.9-2.9-3-4.7-6.1-5.3c-1.8-0.3-3.5-1.1-5.3-1.5
      c-0.4-0.1-1.1,0.1-1.3,0.4c-0.2,0.3,0,1.2,0.3,1.3c1.4,0.9,2.7,1.9,4.2,2.3c2.7,0.8,4.1,2.5,4.6,5c0.5,2.9,0.7,6,1.2,8.9
      c0.1,0.6,1.2,1.6,1.5,1.5c0.9-0.3,1.8-1,2.5-1.7c0.3-0.3,0.1-1.1,0.1-1.6C122,94.5,122.1,94.5,122.1,94.5z M116.1,64.7
      c-0.1-1.1-0.1-2.2-0.3-3.3c-0.3-2.1-1.1-3.9-2.9-5.1c-2.2-1.6-4.4-3.3-6.7-4.7c-1.1-0.6-2.5-0.8-3.7-0.9c-0.5-0.1-1.1,0.6-1.7,0.9
      c0.3,0.6,0.6,1.3,1.1,1.6c2.3,1.6,4.7,3.1,7.1,4.7c1.8,1.2,2.9,2.9,2.8,5.2c0,1.5,0.2,2.9,0.3,4.4c0,1-0.1,2.1,1.3,2.2
      c1.1,0.1,2.6-1.1,2.7-2.2C116,66.6,116,65.7,116.1,64.7C116,64.7,116,64.7,116.1,64.7z M128.5,82.1c0.5,2.9,2.7,3.8,4.5,4.9
      c3.8,2.5,6.1,5.5,5.4,10.3c-0.2,1.2-0.4,2.4-0.3,3.6c0,0.7,0.6,1.8,0.9,1.8c0.9,0,2.5-0.4,2.6-0.9c0.8-3.8,1.9-7.8-0.3-11.5
      c-2.3-3.9-5.9-6.4-10.1-7.8C130.4,82.1,129.5,82.2,128.5,82.1z M132,122.8c-0.5-2.6-0.9-5.3-1.4-7.9c-0.1-0.3-0.2-0.7-0.5-0.8
      c-3.1-2.2-5.9-4.9-10-5.2c-0.5,0-1.1,0.3-1.7,0.5c0.3,0.6,0.5,1.4,1,1.8c2.1,1.5,4.4,2.8,6.5,4.3c0.4,0.3,0.8,0.8,0.8,1.3
      c0.3,2.7,0.6,5.4,0.7,8.2c0.1,1.2,0.4,2.1,1.6,2.2c1,0.1,2.4-1.1,2.6-2.1c0.1-0.7,0.1-1.4,0.1-2.1C131.9,122.9,132,122.9,132,122.8z
       M129.2,18.4c-1.3-0.1-1.9,0.7-2.1,1.8c-0.2,1.2,0.8,1.2,1.6,1.5c3.8,1.4,6.7,3.7,7.6,7.9c0.4,1.6,0.6,3.3,0.9,5
      c0.2,1.2,1.7,1.7,2.5,0.8c0.6-0.7,1.3-1.9,1.1-2.7c-0.7-2.9-1.4-5.7-2.6-8.4C137,21.5,131.8,18.4,129.2,18.4z M137.9,47.2
      c-0.4-5.7-5.4-11.5-10.7-12.1c-1-0.1-2.3-0.4-2.5,0.8c-0.1,0.7,0.9,1.7,1.7,2.4c1.4,1.2,3.1,2.1,4.5,3.2c2.8,2.1,3.3,5,2.9,8.2
      c-0.1,1.1-0.5,2.4,1,2.7c1.5,0.4,2.2-0.8,2.6-1.9C137.7,49.4,137.8,48.3,137.9,47.2z M156.5,50.7c0.1-4.2-2.3-7.1-4.9-9.9
      c-0.8-0.9-1.7-1.6-2.9-1.4c-0.6,0.1-1.2,0.6-1.6,1.2c-0.2,0.2,0.2,1,0.5,1.4c0.9,1.1,1.9,2.2,2.9,3.3c2.4,2.5,2.3,5.5,2.1,8.6
      c0,0.7-0.1,1.4-0.1,2.1c-0.1,1-0.2,2.1,1.1,2.4c0.9,0.2,2.4-1,2.5-2.1C156.3,54.4,156.4,52.6,156.5,50.7z M135.8,67.3
      c0-2.9,0-6-2.5-8c-2-1.6-4.3-2.7-6.6-3.8c-0.5-0.2-1.4,0.4-2.1,0.6c0.3,0.8,0.3,1.9,0.9,2.4c1.4,1.2,3.2,1.9,4.5,3.2
      c0.9,1,1.6,2.4,1.9,3.8c0.3,1.4,0.2,2.9,0,4.4c-0.1,1.4,0.4,2.1,1.7,2.3c1,0.1,2.1-1,2.2-2.2C135.9,69.1,135.8,68.2,135.8,67.3z
       M104.5,12.8c-0.4,0-0.9-0.2-1.1,0c-0.5,0.4-1.2,0.9-1.3,1.4c-0.1,0.4,0.5,1.1,1,1.4c0.9,0.5,1.8,0.7,2.8,1c3.2,0.8,5.1,2.8,5.6,6.1
      c0.1,0.7,0.3,1.4,0.5,2.1c0.3,1,0.6,2,2,1.7c1.4-0.3,1.9-1.3,2-2.5c0.2-4.7-2.8-8.9-7.3-10.3c-1.3-0.4-2.6-0.7-3.9-1.1
      C104.6,12.6,104.6,12.7,104.5,12.8z M116.5,40.9c0.1-3.7-2.1-6.2-5-8c-1.8-1.2-4-1.8-6.1-2.6c-1.2-0.4-1.9,0.5-2.2,1.5
      c-0.1,0.4,0.7,1.2,1.2,1.6c2,1.3,4.2,2.4,6,3.9c1.5,1.2,2.4,2.9,2.2,5.1c-0.1,0.9-0.6,2.2,1,2.5c1.3,0.2,2.2-0.5,2.6-2.1
      C116.4,42.1,116.4,41.5,116.5,40.9z M27,126.2c-1.2,0-2.2-0.3-3.9,0.9c-0.4,0.2-0.5,0.8-0.7,1.2c0.4,0.2,1,0.6,1.3,0.5
      c2-1,4.5-0.2,5.4,1.8c0.4,0.4,1.2,0.3,1.9,0.4c-0.1-0.6-0.1-1.4-0.2-1.8C30.2,128,29,126.3,27,126.2z"/>
  </svg>